<?xml version="1.0" encoding="utf-8"?>
<!-- Generator: Adobe Illustrator 25.0.1, SVG Export Plug-In . SVG Version: 6.00 Build 0)  -->
<svg version="1.1" id="Layer_1" xmlns="http://www.w3.org/2000/svg" xmlns:xlink="http://www.w3.org/1999/xlink" x="0px" y="0px"
	 viewBox="0 0 800 96.6" style="enable-background:new 0 0 800 96.6;" xml:space="preserve">
<style type="text/css">
	.st0{fill:#F7E4CB;}
</style>
<g>
	<path class="st0" d="M48.3,0C21.6,0,0,21.6,0,48.3C0,75,21.6,96.6,48.3,96.6C75,96.6,96.6,75,96.6,48.3C96.6,21.6,75,0,48.3,0z
		 M56.2,71.7L43.6,84.3V39.1l12.6,12.6V71.7z M73.8,39.1L61.2,51.7V34.2H18.5L31,21.6h42.7V39.1z"/>
	<g>
		<polygon class="st0" points="387.2,21.6 369.4,67.4 351.4,21.6 339.5,21.6 362.7,80 376,80 399.1,21.6 		"/>
		<polygon class="st0" points="417.1,21.6 417.1,80 456.8,80 456.8,70 427.2,70 427.2,55.8 450.8,55.8 450.8,45.8 427.2,45.8 
			427.2,31.7 456.8,31.7 456.8,21.6 		"/>
		<polygon class="st0" points="480.5,21.6 480.5,80 520.3,80 520.3,70 490.6,70 490.6,21.6 		"/>
		<path class="st0" d="M566.5,47.6h-16.7V31.7h16.7c5.5,0,8.5,3,8.5,7.9C575,44.7,572,47.6,566.5,47.6 M567.2,21.6h-27.5V80h10.1
			V57.6h17.4c11.3,0,17.9-7.4,17.9-18C585.1,29.1,578.4,21.6,567.2,21.6"/>
		<path class="st0" d="M629.8,71.3c-11.7,0-19.8-8.6-19.8-20.3c0-11.8,8.2-20.6,19.8-20.6c11.6,0,19.8,8.8,19.8,20.6
			C649.6,62.8,641.4,71.3,629.8,71.3 M629.9,20.4c-18.1,0-30.5,13.5-30.5,30.6c0,17,12.4,30.3,30.5,30.3c17.9,0,30.3-13.3,30.3-30.3
			C660.2,33.9,647.8,20.4,629.9,20.4"/>
		<path class="st0" d="M705.8,47.6h-17.1V31.7h17.1c5.3,0,8.6,3,8.6,7.9C714.3,44.7,711.1,47.6,705.8,47.6 M724.4,39.6
			c0-10.4-7-17.9-18-17.9h-27.8V80h10.1V57.6h15l10.1,22.5h11l-11-23.9C720.5,53.7,724.4,47.5,724.4,39.6"/>
		<path class="st0" d="M240.3,47.6h-17.1V31.7h17.1c5.3,0,8.6,3,8.6,7.9C248.9,44.7,245.6,47.6,240.3,47.6 M258.9,39.6
			c0-10.4-7-17.9-18-17.9h-27.8V80h10.1V57.6h15l10.1,22.5h11l-11-23.9C255,53.7,258.9,47.5,258.9,39.6"/>
		<polygon class="st0" points="746,21.6 736,31.7 761.3,31.7 761.3,80 771.4,80 771.4,31.7 790,31.7 800,21.6 		"/>
		<path class="st0" d="M305,33.3L315.2,60h-20.5L305,33.3z M299,21.6L276.1,80h11l3.8-10h28.2l3.8,10H334l-23-58.4H299z"/>
		<polygon class="st0" points="145,21.6 135,31.7 160.4,31.7 160.4,80 170.5,80 170.5,31.7 189,31.7 199.1,21.6 		"/>
	</g>
</g>
</svg>
